<svg viewBox="0 0 227 146" xmlns="http://www.w3.org/2000/svg">
    <path d="M54.158 70.4h-1.376c-.064-1.045-.224-1.91-.48-2.592-.234-.704-.576-1.259-1.024-1.664a3.455 3.455 0 0 0-1.632-.864c-.64-.17-1.386-.256-2.24-.256-.832 0-1.504.021-2.016.064-.49.021-.874.075-1.152.16-.256.064-.426.16-.512.288a.847.847 0 0 0-.128.48v16.768c0 .683.043 1.27.128 1.76.107.49.31.896.608 1.216.299.299.736.533 1.312.704.576.15 1.334.235 2.272.256V88H34.51v-1.28c.96-.021 1.728-.107 2.304-.256.576-.17 1.014-.405 1.312-.704.32-.32.523-.725.608-1.216.107-.49.16-1.077.16-1.76V66.016a.847.847 0 0 0-.128-.48c-.064-.128-.213-.224-.448-.288-.234-.085-.576-.139-1.024-.16a17.814 17.814 0 0 0-1.696-.064c-.768 0-1.504.043-2.208.128-.704.064-1.322.277-1.856.64-.533.341-.97.875-1.312 1.6-.32.704-.49 1.707-.512 3.008h-1.248l.32-7.04h25.056l.32 7.04Zm15.075 14.624c-1.941 2.197-4.362 3.296-7.264 3.296-1.322 0-2.528-.203-3.616-.608a8.341 8.341 0 0 1-2.752-1.76 8.164 8.164 0 0 1-1.792-2.72c-.426-1.045-.64-2.208-.64-3.488 0-1.323.224-2.528.672-3.616a8.213 8.213 0 0 1 1.888-2.848 8.905 8.905 0 0 1 2.912-1.888c1.13-.448 2.368-.672 3.712-.672 2.262 0 4.021.608 5.28 1.824 1.259 1.216 1.888 2.923 1.888 5.12 0 .341-.053.555-.16.64-.107.064-.405.096-.896.096H58.161c-.085.192-.128.544-.128 1.056 0 2.09.448 3.744 1.344 4.96.917 1.216 2.155 1.824 3.712 1.824.896 0 1.782-.203 2.656-.608.896-.405 1.76-.981 2.592-1.728l.896 1.12Zm-6.208-8.416c.854 0 1.398-.043 1.632-.128.256-.107.384-.341.384-.704 0-.939-.266-1.707-.8-2.304-.533-.597-1.205-.896-2.016-.896-.917 0-1.739.384-2.464 1.152-.704.747-1.163 1.707-1.376 2.88h4.64Zm15.903 6.112c0 .896.021 1.6.064 2.112.042.512.16.907.352 1.184.192.256.47.427.832.512.362.085.864.15 1.504.192V88H71.568v-1.28c.64-.043 1.152-.107 1.536-.192.384-.085.672-.256.864-.512.192-.256.32-.619.384-1.088.064-.49.096-1.141.096-1.952v-3.968c0-1.216-.021-2.23-.064-3.04-.022-.81-.075-1.365-.16-1.664-.064-.277-.15-.49-.256-.64-.086-.17-.235-.299-.448-.384-.192-.107-.448-.17-.768-.192a9.8 9.8 0 0 0-1.248-.064v-1.088l6.176-1.216.384 2.784h.192c.896-1.003 1.792-1.717 2.688-2.144.917-.427 1.973-.64 3.168-.64 1.408 0 2.57.245 3.488.736a4.852 4.852 0 0 1 2.08 2.112h.128a7.973 7.973 0 0 1 2.752-2.08 7.81 7.81 0 0 1 3.424-.768c1.28 0 2.39.16 3.328.48.96.32 1.707.779 2.24 1.376.427.49.736 1.13.928 1.92.213.79.32 1.888.32 3.296v4.928c0 .875.021 1.568.064 2.08.064.512.192.907.384 1.184.192.277.469.459.832.544.363.085.864.15 1.504.192V88H95.472v-1.28c.64-.021 1.141-.075 1.504-.16.384-.107.672-.288.864-.544.213-.277.341-.65.384-1.12.064-.47.096-1.11.096-1.92v-4.192c0-1.11-.064-2.048-.192-2.816-.128-.768-.33-1.387-.608-1.856-.277-.47-.65-.8-1.12-.992-.448-.213-1.003-.32-1.664-.32-.747 0-1.365.181-1.856.544-.47.363-.864.832-1.184 1.408-.555 1.003-.832 2.25-.832 3.744v4.224c0 .875.021 1.568.064 2.08s.16.907.352 1.184c.192.277.47.459.832.544.384.085.907.15 1.568.192V88H83.536v-1.28c.64-.043 1.141-.107 1.504-.192.384-.085.672-.256.864-.512.213-.256.341-.619.384-1.088.064-.49.096-1.141.096-1.952v-4.192c0-1.11-.064-2.048-.192-2.816-.128-.768-.341-1.387-.64-1.856-.278-.47-.65-.8-1.12-.992-.47-.213-1.056-.32-1.76-.32s-1.29.17-1.76.512c-.448.341-.822.8-1.12 1.376a6.842 6.842 0 0 0-.64 1.76 9.266 9.266 0 0 0-.224 2.048v4.224Zm34.126-9.6h.128c1.408-1.6 3.243-2.4 5.504-2.4 1.237 0 2.368.224 3.392.672a7.613 7.613 0 0 1 2.688 1.824c.768.768 1.355 1.696 1.76 2.784.427 1.067.64 2.24.64 3.52 0 1.28-.213 2.453-.64 3.52a8.273 8.273 0 0 1-1.728 2.784 7.984 7.984 0 0 1-2.688 1.856c-1.024.427-2.144.64-3.36.64-2.069 0-3.648-.704-4.736-2.112h-.128v4.448c0 .853.043 1.536.128 2.048s.267.907.544 1.184c.277.277.661.47 1.152.576.512.107 1.184.17 2.016.192V96h-11.04v-1.344c.576-.021 1.045-.085 1.408-.192s.64-.299.832-.576c.213-.277.352-.661.416-1.152.085-.47.128-1.088.128-1.856V78.976c0-.981-.021-1.91-.064-2.784-.043-.896-.096-1.525-.16-1.888-.107-.49-.352-.832-.736-1.024-.363-.192-.992-.288-1.888-.288v-1.248l6.432-.896v2.272Zm5.44-.576c-.683 0-1.333.15-1.952.448-.619.299-1.109.693-1.472 1.184-.363.49-.64 1.11-.832 1.856a9.234 9.234 0 0 0-.288 2.368v2.176c0 1.515.373 2.805 1.12 3.872.811 1.173 1.952 1.76 3.424 1.76 1.301 0 2.261-.533 2.88-1.6.64-1.088.96-2.763.96-5.024 0-4.693-1.28-7.04-3.84-7.04Zm27.177 12.48c-1.942 2.197-4.363 3.296-7.264 3.296-1.323 0-2.528-.203-3.616-.608a8.337 8.337 0 0 1-2.752-1.76 8.153 8.153 0 0 1-1.792-2.72c-.427-1.045-.64-2.208-.64-3.488 0-1.323.224-2.528.672-3.616a8.207 8.207 0 0 1 1.888-2.848 8.898 8.898 0 0 1 2.912-1.888c1.13-.448 2.368-.672 3.712-.672 2.261 0 4.021.608 5.28 1.824 1.258 1.216 1.888 2.923 1.888 5.12 0 .341-.054.555-.16.64-.107.064-.406.096-.896.096h-10.304c-.086.192-.128.544-.128 1.056 0 2.09.448 3.744 1.344 4.96.917 1.216 2.154 1.824 3.712 1.824.896 0 1.781-.203 2.656-.608.896-.405 1.76-.981 2.592-1.728l.896 1.12Zm-6.208-8.416c.853 0 1.397-.043 1.632-.128.256-.107.384-.341.384-.704 0-.939-.267-1.707-.8-2.304-.534-.597-1.206-.896-2.016-.896-.918 0-1.739.384-2.464 1.152-.704.747-1.163 1.707-1.376 2.88h4.64Zm15.902 6.432c0 .832.032 1.493.096 1.984.086.47.246.832.48 1.088.235.256.576.427 1.024.512.448.064 1.046.096 1.792.096V88h-10.688v-1.28c.64-.043 1.152-.107 1.536-.192.384-.085.672-.256.864-.512.192-.256.31-.619.352-1.088.064-.49.096-1.141.096-1.952v-3.904c0-1.323-.032-2.379-.096-3.168-.064-.79-.202-1.397-.416-1.824-.213-.427-.522-.704-.928-.832-.384-.15-.896-.224-1.536-.224v-1.12l6.4-1.184.512 3.68h.128c.576-1.13 1.334-2.027 2.272-2.688.939-.661 1.931-.992 2.976-.992.811 0 1.472.203 1.984.608.512.405.768.917.768 1.536 0 .683-.202 1.259-.608 1.728-.384.47-.917.704-1.6.704-.32 0-.608-.064-.864-.192a5.618 5.618 0 0 1-.704-.416 4.017 4.017 0 0 0-.608-.448.974.974 0 0 0-.608-.224c-.405 0-.789.267-1.152.8-.362.533-.661 1.248-.896 2.144-.17.64-.309 1.365-.416 2.176-.106.79-.16 1.579-.16 2.368v1.536Zm18.022-12.32c1.28 0 2.485.224 3.616.672a9.249 9.249 0 0 1 3.008 1.792 8.17 8.17 0 0 1 2.048 2.752c.512 1.045.768 2.197.768 3.456 0 1.301-.256 2.496-.768 3.584a8.416 8.416 0 0 1-2.048 2.816 9.399 9.399 0 0 1-3.008 1.856 9.727 9.727 0 0 1-3.616.672c-1.259 0-2.454-.213-3.584-.64a9.47 9.47 0 0 1-2.976-1.856 8.597 8.597 0 0 1-2.016-2.816c-.491-1.11-.736-2.315-.736-3.616 0-1.259.245-2.421.736-3.488a8.339 8.339 0 0 1 2.016-2.752 9.31 9.31 0 0 1 2.976-1.792c1.13-.427 2.325-.64 3.584-.64Zm0 1.856c-.64 0-1.227.17-1.76.512-.534.32-.992.779-1.376 1.376-.363.597-.651 1.323-.864 2.176-.192.832-.288 1.76-.288 2.784 0 1.067.096 2.027.288 2.88.213.853.501 1.579.864 2.176.384.597.832 1.067 1.344 1.408.533.32 1.13.48 1.792.48.661 0 1.258-.16 1.792-.48a4.442 4.442 0 0 0 1.408-1.408c.384-.619.682-1.355.896-2.208.213-.853.32-1.803.32-2.848 0-1.024-.107-1.952-.32-2.784-.214-.832-.512-1.547-.896-2.144-.384-.619-.854-1.088-1.408-1.408a3.257 3.257 0 0 0-1.792-.512ZM186.736 88h-.992v-5.824h1.344c.362 1.536.885 2.656 1.568 3.36.682.704 1.568 1.056 2.656 1.056.789 0 1.397-.16 1.824-.48.448-.341.672-.8.672-1.376 0-.597-.267-1.173-.8-1.728-.534-.576-1.398-1.184-2.592-1.824-1.622-.875-2.784-1.739-3.488-2.592-.704-.875-1.056-1.856-1.056-2.944 0-.704.128-1.355.384-1.952a5.3 5.3 0 0 1 1.088-1.6 4.74 4.74 0 0 1 1.664-1.024 5.548 5.548 0 0 1 2.08-.384 6.76 6.76 0 0 1 1.952.288 5.873 5.873 0 0 1 1.728.8l.576-.768h.832v4.832h-1.248c-.491-1.216-1.003-2.09-1.536-2.624a2.516 2.516 0 0 0-1.888-.8c-.598 0-1.078.16-1.44.48-.342.32-.512.747-.512 1.28 0 .597.256 1.163.768 1.696.533.533 1.408 1.12 2.624 1.76.853.47 1.589.928 2.208 1.376.618.448 1.12.907 1.504 1.376.384.448.661.928.832 1.44.192.49.288 1.024.288 1.6 0 .747-.139 1.419-.416 2.016a4.385 4.385 0 0 1-1.184 1.536c-.512.427-1.131.757-1.856.992-.704.235-1.494.352-2.368.352a8.94 8.94 0 0 1-2.56-.352c-.79-.256-1.44-.619-1.952-1.088l-.704 1.12ZM66.283 123.952h-.128c-1.472 1.579-3.382 2.368-5.728 2.368-1.216 0-2.336-.213-3.36-.64a7.982 7.982 0 0 1-2.624-1.792 8.27 8.27 0 0 1-1.696-2.72c-.406-1.067-.608-2.24-.608-3.52 0-1.28.202-2.464.608-3.552.426-1.088.992-2.027 1.696-2.816a7.679 7.679 0 0 1 2.56-1.888 7.832 7.832 0 0 1 3.232-.672c1.066 0 2.005.16 2.816.48.832.32 1.557.864 2.176 1.632h.128v-2.72c0-1.259-.022-2.336-.064-3.232-.022-.917-.064-1.515-.128-1.792-.107-.448-.438-.768-.992-.96-.534-.213-1.366-.32-2.496-.32v-1.088l8.096-1.28v18.304c0 1.6.01 2.837.032 3.712.042.853.106 1.504.192 1.952.042.277.106.501.192.672.085.171.213.309.384.416.17.085.394.149.672.192.298.021.672.032 1.12.032v1.248l-6.08.352v-2.368Zm-.992-7.136c0-.811-.086-1.557-.256-2.24a6.06 6.06 0 0 0-.768-1.856 3.87 3.87 0 0 0-1.472-1.408 4.005 4.005 0 0 0-1.92-.48c-1.259 0-2.219.576-2.88 1.728-.662 1.152-.992 2.827-.992 5.024 0 2.219.33 3.925.992 5.12.661 1.195 1.61 1.792 2.848 1.792.704 0 1.376-.181 2.016-.544a4.505 4.505 0 0 0 1.568-1.472c.298-.469.512-1.045.64-1.728.149-.704.224-1.6.224-2.688v-1.248Zm18.826.064c-1.792.811-3.146 1.568-4.064 2.272-.896.683-1.344 1.397-1.344 2.144 0 .619.171 1.109.512 1.472.342.363.768.544 1.28.544s.992-.085 1.44-.256a3.943 3.943 0 0 0 1.152-.736 3.05 3.05 0 0 0 .736-1.056c.192-.427.288-.875.288-1.344v-3.04Zm0-1.696v-1.344c0-1.237-.224-2.133-.672-2.688-.426-.576-1.098-.864-2.016-.864-.618 0-1.088.171-1.408.512-.32.32-.618.864-.896 1.632-.192.533-.469.949-.832 1.248-.341.299-.821.448-1.44.448-.597 0-1.056-.181-1.376-.544-.32-.363-.48-.875-.48-1.536 0-1.024.555-1.835 1.664-2.432 1.131-.597 2.827-.896 5.088-.896 2.39 0 4.096.437 5.12 1.312 1.024.853 1.536 2.293 1.536 4.32v7.008c0 1.813.363 2.72 1.088 2.72a1.74 1.74 0 0 0 1.12-.416l.48.928c-.298.533-.768.96-1.408 1.28-.618.299-1.322.448-2.112.448-.981 0-1.728-.299-2.24-.896-.512-.597-.768-1.44-.768-2.528h-.16c-.618 1.109-1.418 1.952-2.4 2.528-.981.576-2.101.864-3.36.864-1.344 0-2.421-.373-3.232-1.12-.81-.768-1.216-1.76-1.216-2.976 0-.939.416-1.813 1.248-2.624.832-.832 2.219-1.643 4.16-2.432l4.512-1.952Zm28.571 5.312 4.16-10.656c.405-1.045.725-1.899.96-2.56a23.02 23.02 0 0 0 .576-1.632 8.91 8.91 0 0 0 .256-1.024 4.44 4.44 0 0 0 .064-.736c0-.512-.192-.843-.576-.992-.384-.171-1.152-.256-2.304-.256v-1.28h9.088v1.28c-1.771 0-2.997.864-3.68 2.592l-8.416 21.088h-2.368l-7.648-18.688a32.204 32.204 0 0 0-1.152-2.464c-.341-.64-.704-1.141-1.088-1.504a2.867 2.867 0 0 0-1.28-.768c-.448-.149-.981-.224-1.6-.224v-1.312h12.096v1.312c-.555.021-1.024.053-1.408.096-.363.043-.651.117-.864.224-.213.085-.363.213-.448.384a1.153 1.153 0 0 0-.128.576c0 .299.053.651.16 1.056.107.405.267.896.48 1.472l5.12 14.016Zm19.489.256c0 .853.032 1.536.096 2.048s.192.907.384 1.184c.192.277.469.469.832.576.363.085.853.139 1.472.16V126h-10.08v-1.28c.597-.021 1.077-.085 1.44-.192.384-.128.672-.32.864-.576.213-.277.352-.651.416-1.12.085-.491.128-1.109.128-1.856v-3.936c0-1.237-.021-2.251-.064-3.04-.043-.811-.096-1.365-.16-1.664-.107-.533-.352-.885-.736-1.056-.363-.171-1.035-.256-2.016-.256v-1.088l7.424-1.216v12.032Zm-4.704-18.816c0-.704.235-1.291.704-1.76a2.402 2.402 0 0 1 1.76-.736c.704 0 1.291.245 1.76.736.491.469.736 1.056.736 1.76a2.4 2.4 0 0 1-.736 1.76c-.469.469-1.056.704-1.76.704a2.459 2.459 0 0 1-1.76-.704 2.459 2.459 0 0 1-.704-1.76Zm23.435 22.016h-.128c-1.472 1.579-3.382 2.368-5.728 2.368-1.216 0-2.336-.213-3.36-.64a7.97 7.97 0 0 1-2.624-1.792 8.252 8.252 0 0 1-1.696-2.72c-.406-1.067-.608-2.24-.608-3.52 0-1.28.202-2.464.608-3.552.426-1.088.992-2.027 1.696-2.816a7.668 7.668 0 0 1 2.56-1.888 7.83 7.83 0 0 1 3.232-.672c1.066 0 2.005.16 2.816.48.832.32 1.557.864 2.176 1.632h.128v-2.72a70.34 70.34 0 0 0-.064-3.232c-.022-.917-.064-1.515-.128-1.792-.107-.448-.438-.768-.992-.96-.534-.213-1.366-.32-2.496-.32v-1.088l8.096-1.28v18.304c0 1.6.01 2.837.032 3.712.042.853.106 1.504.192 1.952.042.277.106.501.192.672.085.171.213.309.384.416.17.085.394.149.672.192.298.021.672.032 1.12.032v1.248l-6.08.352v-2.368Zm-.992-7.136a9.26 9.26 0 0 0-.256-2.24 6.08 6.08 0 0 0-.768-1.856 3.874 3.874 0 0 0-1.472-1.408 4.009 4.009 0 0 0-1.92-.48c-1.259 0-2.219.576-2.88 1.728-.662 1.152-.992 2.827-.992 5.024 0 2.219.33 3.925.992 5.12.661 1.195 1.61 1.792 2.848 1.792.704 0 1.376-.181 2.016-.544a4.51 4.51 0 0 0 1.568-1.472c.298-.469.512-1.045.64-1.728.149-.704.224-1.6.224-2.688v-1.248Zm18.826.064c-1.792.811-3.146 1.568-4.064 2.272-.896.683-1.344 1.397-1.344 2.144 0 .619.171 1.109.512 1.472.342.363.768.544 1.28.544s.992-.085 1.44-.256a3.943 3.943 0 0 0 1.152-.736c.32-.299.566-.651.736-1.056.192-.427.288-.875.288-1.344v-3.04Zm0-1.696v-1.344c0-1.237-.224-2.133-.672-2.688-.426-.576-1.098-.864-2.016-.864-.618 0-1.088.171-1.408.512-.32.32-.618.864-.896 1.632-.192.533-.469.949-.832 1.248-.341.299-.821.448-1.44.448-.597 0-1.056-.181-1.376-.544-.32-.363-.48-.875-.48-1.536 0-1.024.555-1.835 1.664-2.432 1.131-.597 2.827-.896 5.088-.896 2.39 0 4.096.437 5.12 1.312 1.024.853 1.536 2.293 1.536 4.32v7.008c0 1.813.363 2.72 1.088 2.72.406 0 .779-.139 1.12-.416l.48.928c-.298.533-.768.96-1.408 1.28-.618.299-1.322.448-2.112.448-.981 0-1.728-.299-2.24-.896-.512-.597-.768-1.44-.768-2.528h-.16c-.618 1.109-1.418 1.952-2.4 2.528-.981.576-2.101.864-3.36.864-1.344 0-2.421-.373-3.232-1.12-.81-.768-1.216-1.76-1.216-2.976 0-.939.416-1.813 1.248-2.624.832-.832 2.219-1.643 4.16-2.432l4.512-1.952Z" fill="currentColor"/>
    <path fill-rule="evenodd" clip-rule="evenodd" d="M179.066 12.054c-.356.07-1.891.629-2.753 1.005-3.875 1.689-7.588 4.301-9.747 6.858-2.286 2.706-3.451 5.2-4.002 8.57-.215 1.316-.306 3.889-.194 5.485l.094 1.349-.382.944c-.211.52-.573 1.467-.806 2.107l-.423 1.163-.097-.354-.404-1.477c-.289-1.06-.867-2.605-1.605-4.295-.258-.592-.341-.922-.405-1.619-.53-5.729-1.811-8.716-5.013-11.689-2.283-2.12-6.196-4.228-8.895-4.791-.824-.173-.836-.16-.836.925.001 2.17.75 5.183 1.839 7.398.568 1.155 1.766 3.006 2.443 3.776 1.857 2.11 3.678 3.449 6.794 4.992 1.696.84 2.281 1.324 2.907 2.407 1.248 2.156 2.282 6.187 2.275 8.87l-.001.724-.277-.45a20.254 20.254 0 0 0-1.539-2.203 19.944 19.944 0 0 1-1.131-1.612c-.695-1.145-1.718-2.5-2.373-3.143-2.234-2.192-4.905-3.254-8.194-3.257-2.114-.002-3.778.364-5.927 1.305-1.113.486-2.414 1.234-2.414 1.386 0 .072 1.063.94 2.399 1.96 3.151 2.405 5.926 3.597 9.601 4.125.637.091 2.054.172 3.732.212 3.093.075 2.993.051 3.801.902.798.841 1.778 3.09 2.198 5.045.08.371.202.766.271.877.14.224.451.264.681.09.17-.129.198-.29.332-1.956.103-1.262.431-3.657.673-4.9.54-2.777 1.442-5.521 2.022-6.146.304-.328 2.215-1.789 4.189-3.201 2.979-2.132 4.821-3.857 6.483-6.072 1.935-2.579 3.422-5.782 4.31-9.287.322-1.271 1.158-5.485 1.158-5.837 0-.225-.029-.249-.288-.238-.159.007-.382.03-.496.052Zm-5.613 7.542c0 .03-.312.465-.692.966-1.854 2.445-3.71 5.216-5.128 7.656-2.43 4.183-3.122 5.29-3.25 5.21-.281-.175.116-1.343 1.201-3.537 1.789-3.614 3.469-5.964 6.483-9.068 1.129-1.162 1.386-1.39 1.386-1.227Zm-24.197 2.118c.866.69 2.794 2.596 3.532 3.492 1.565 1.901 3.451 5.035 3.03 5.035-.144 0-.557-.486-1.872-2.203-3.496-4.564-4.414-5.727-5.097-6.45-.221-.235-.376-.428-.345-.428.032 0 .37.25.752.554Zm31.561 11.046c-1.867.336-3.985 1.171-6.268 2.47-4.873 2.772-7.565 5.081-9.381 8.048-.648 1.057-1.261 2.65-1.367 3.551-.269 2.28-1.025 3.268-3.987 5.213-3.814 2.504-6.978 4.6-10.998 7.288-.891.595-1.82 1.2-2.064 1.342-.899.526-4.055 2.667-4.413 2.993-.661.603-.849 1.352-.547 2.177.433 1.18 1.5 2.027 2.693 2.136.985.09 1.094.025 4.568-2.763 2.297-1.842 3.852-3.085 5.116-4.09 1.607-1.278 2.898-2.309 4.279-3.417 4.471-3.588 4.826-3.822 6.498-4.271.78-.21 1.094-.18 3.22.32 2.173.512 3.393.6 4.91.36 3.417-.544 7.576-2.96 10.113-5.874.972-1.116 1.012-1.165 1.516-1.87 1.517-2.119 2.397-4.002 2.968-6.353.498-2.053.432-3.38-.234-4.718-.653-1.31-1.711-2.184-3.066-2.534-.883-.227-2.324-.23-3.556-.008Zm-34.097 4.406c2.828.28 4.793.927 6.696 2.202.391.262.811.585.933.717l.222.24-.488-.194a44.533 44.533 0 0 1-1.067-.445c-2.854-1.243-4.34-1.766-6.289-2.215-.768-.176-1.412-.338-1.433-.359-.062-.063.451-.043 1.426.054Zm38.239 3.474c-1.103 3.352-4.01 7.01-7.33 9.227-1.416.945-2.348 1.383-3.865 1.818-1.286.368-2.919.519-3.765.347-.442-.089-.323-.213.204-.213.644 0 2.035-.284 3.073-.628 1.164-.385 3.157-1.402 4.213-2.15 2.902-2.055 5.648-5.29 7.227-8.512.479-.978.586-.93.243.11Z" fill="currentColor"/>
</svg>
