<svg width="64" height="64" fill="none" xmlns="http://www.w3.org/2000/svg">
    <path fill="#fff" d="M0 0h64v64H0z"/>
    <path fill-rule="evenodd" clip-rule="evenodd" d="M48.066 4.054c-.356.07-1.89.629-2.753 1.005-3.875 1.689-7.588 4.301-9.747 6.858-2.286 2.706-3.45 5.2-4.002 8.57-.215 1.316-.306 3.889-.194 5.485l.094 1.349-.382.944c-.21.52-.573 1.467-.806 2.107l-.423 1.163-.097-.354-.404-1.478c-.29-1.058-.867-2.604-1.605-4.294-.258-.592-.34-.922-.405-1.619-.53-5.729-1.811-8.716-5.013-11.689-2.283-2.12-6.196-4.228-8.895-4.792-.824-.172-.836-.158-.836.926 0 2.17.75 5.183 1.84 7.398.567 1.155 1.765 3.006 2.442 3.776 1.857 2.11 3.678 3.449 6.794 4.992 1.696.84 2.28 1.324 2.907 2.407 1.247 2.155 2.282 6.187 2.275 8.87l-.001.724-.277-.45a20.197 20.197 0 0 0-1.539-2.203 20.046 20.046 0 0 1-1.131-1.612c-.695-1.145-1.718-2.5-2.373-3.143-2.234-2.192-4.905-3.254-8.194-3.257-2.114-.002-3.778.364-5.927 1.305C8.3 27.528 7 28.276 7 28.428c0 .072 1.063.94 2.399 1.96 3.151 2.405 5.926 3.597 9.601 4.125.637.091 2.054.172 3.732.212 3.093.075 2.993.051 3.801.902.798.841 1.778 3.09 2.198 5.045.08.371.202.766.271.877.14.224.45.264.681.09.17-.129.198-.29.332-1.956.102-1.262.431-3.657.673-4.9.54-2.777 1.442-5.521 2.022-6.146.304-.329 2.215-1.789 4.19-3.201 2.978-2.132 4.82-3.857 6.482-6.072 1.935-2.579 3.422-5.782 4.31-9.287.322-1.271 1.158-5.485 1.158-5.837 0-.225-.03-.249-.288-.238a4.17 4.17 0 0 0-.496.052Zm-5.613 7.542c0 .03-.312.464-.692.966-1.854 2.445-3.71 5.216-5.128 7.656-2.43 4.183-3.122 5.29-3.25 5.21-.28-.175.116-1.343 1.201-3.537 1.789-3.614 3.469-5.964 6.483-9.068 1.13-1.162 1.386-1.39 1.386-1.227Zm-24.197 2.118c.866.69 2.794 2.596 3.532 3.492 1.565 1.901 3.451 5.035 3.03 5.035-.144 0-.557-.486-1.872-2.203-3.496-4.565-4.414-5.726-5.097-6.45-.22-.235-.376-.427-.345-.427.032 0 .37.248.752.553Zm31.561 11.045c-1.867.337-3.985 1.172-6.268 2.47-4.873 2.773-7.566 5.082-9.382 8.049-.647 1.057-1.26 2.65-1.366 3.551-.27 2.28-1.025 3.268-3.987 5.213a1503.22 1503.22 0 0 0-10.998 7.288 71.4 71.4 0 0 1-2.064 1.342c-.9.526-4.055 2.667-4.413 2.993-.661.603-.85 1.352-.547 2.177.434 1.18 1.5 2.027 2.694 2.136.984.09 1.093.025 4.567-2.763 2.297-1.842 3.852-3.085 5.116-4.09 1.607-1.278 2.898-2.309 4.28-3.417 4.47-3.588 4.825-3.822 6.497-4.271.78-.21 1.094-.18 3.22.32 2.173.512 3.393.6 4.91.36 3.417-.544 7.576-2.96 10.113-5.874.972-1.116 1.012-1.165 1.516-1.87 1.517-2.119 2.397-4.002 2.968-6.353.498-2.053.432-3.38-.234-4.718-.654-1.31-1.71-2.184-3.066-2.534-.883-.227-2.324-.23-3.556-.009ZM15.72 29.166c2.828.28 4.793.927 6.696 2.202.391.262.811.585.933.717l.222.24-.488-.194a44.372 44.372 0 0 1-1.067-.445c-2.854-1.243-4.34-1.766-6.29-2.215-.767-.176-1.411-.338-1.432-.359-.062-.063.45-.043 1.426.054Zm38.24 3.474c-1.104 3.352-4.01 7.01-7.331 9.227-1.416.945-2.348 1.383-3.865 1.818-1.286.368-2.92.519-3.765.347-.442-.089-.323-.213.204-.213.644 0 2.035-.284 3.073-.628 1.164-.385 3.157-1.402 4.213-2.15 2.902-2.055 5.648-5.29 7.227-8.512.479-.978.586-.93.243.11Z" fill="#BA2718"/>
</svg>
